<svg xmlns="http://www.w3.org/2000/svg" width="20" height="14" viewBox="0 0 20 14">
    <g fill="#467C95" fill-rule="evenodd">
        <path d="M.833 2.174C.373 2.174 0 1.687 0 1.087S.373 0 .833 0h18.334c.46 0 .833.487.833 1.087s-.373 1.087-.833 1.087H.833zM.652 7.609C.292 7.609 0 7.122 0 6.522s.292-1.087.652-1.087H15c.36 0 .652.486.652 1.087 0 .6-.292 1.087-.652 1.087H.652zM.399 13.043c-.22 0-.399-.486-.399-1.086 0-.6.178-1.087.399-1.087h8.768c.22 0 .398.486.398 1.087 0 .6-.178 1.086-.398 1.086H.399z"/>
    </g>
</svg>
