<?xml version="1.0" encoding="UTF-8"?>
<svg width="33px" height="33px" viewBox="0 0 33 33" version="1.1" xmlns="http://www.w3.org/2000/svg" xmlns:xlink="http://www.w3.org/1999/xlink">
    <defs>
        <circle id="path-1" cx="16.5" cy="16.5" r="16.5"></circle>
        <polygon id="path-3" points="0 0 17.16 0 17.16 21.12 0 21.12"></polygon>
    </defs>
    <g id="calendaysIconsHome" stroke="none" stroke-width="1" fill="none" fill-rule="evenodd">
        <g id="profile">
            <g id="Group">
                <g id="a-link" fill="#67CF78" fill-rule="nonzero">
                    <circle id="a" cx="16.5" cy="16.5" r="16.5"></circle>
                </g>
                <g id="Clipped">
                    <mask id="mask-2" fill="white">
                        <use xlink:href="#path-1"></use>
                    </mask>
                    <g id="a"></g>
                </g>
            </g>
            <g id="Group" transform="translate(8.000000, 5.000000)">
                <g id="Clipped">
                    <mask id="mask-4" fill="white">
                        <use xlink:href="#path-3"></use>
                    </mask>
                    <g id="c"></g>
                </g>
            </g>
        </g>
        <path d="M16.964031,5.13309626 L17.0662919,5.2079629 L28.3959085,14.8264235 C28.7643029,15.1391779 28.8094081,15.6913581 28.4966537,16.0597525 C28.2099622,16.3974474 27.7220865,16.4634895 27.3590072,16.2312509 L27.2633247,16.1604977 L25.8883656,14.994 L25.8891533,25.68942 C25.8891533,26.1354962 25.5553538,26.5036093 25.1239115,26.5576025 L25.0141533,26.56442 L19.1606729,26.56442 C18.7145968,26.56442 18.3464837,26.2306205 18.2924904,25.7991782 L18.2856729,25.68942 L18.2853834,19.114 L14.7133834,19.114 L14.7143271,25.68942 C14.7143271,26.1354962 14.3805275,26.5036093 13.9490852,26.5576025 L13.8393271,26.56442 L7.98584666,26.56442 C7.53977052,26.56442 7.17165743,26.2306205 7.11766415,25.7991782 L7.11084666,25.68942 L7.11036559,14.994 L5.73667532,16.1604977 C5.39898043,16.4471892 4.90685444,16.4331793 4.58627804,16.1450959 L4.50334632,16.0597525 C4.21665481,15.7220576 4.23066472,15.2299317 4.51874812,14.9093553 L4.60409152,14.8264235 L15.9337081,5.2079629 C16.2276603,4.95840742 16.6453344,4.93345187 16.964031,5.13309626 Z M16.4993834,7.023 L8.86036559,13.508 L8.86038342,24.814 L12.9633834,24.814 L12.9643271,18.2395359 C12.9643271,17.7934597 13.2981266,17.4253466 13.7295689,17.3713533 L13.8393271,17.3645359 L19.1606729,17.3645359 C19.6067491,17.3645359 19.9748621,17.6983354 20.0288554,18.1297777 L20.0356729,18.2395359 L20.0353834,24.814 L24.1383834,24.814 L24.1383656,13.508 L16.4993834,7.023 Z" id="Combined-Shape" fill="#FFFFFF" fill-rule="nonzero"></path>
    </g>
</svg>
