<svg xmlns="http://www.w3.org/2000/svg" width="33" height="32" viewBox="0 0 33 32">
    <g fill="#FFF" fill-rule="evenodd">
        <path d="M7.144 1.604v4.564c0 .815.451 1.23 1.337 1.23.885 0 1.336-.415 1.336-1.23V1.604c0-.814-.45-1.229-1.336-1.229-.886 0-1.337.414-1.337 1.23M25.856 6.168V1.604c0-.814-.451-1.229-1.337-1.229-.886 0-1.336.415-1.336 1.23v4.563c0 .815.45 1.23 1.336 1.23.886 0 1.337-.415 1.337-1.23M12.2 15.5h2.72c.559 0 .778-.203.778-.72v-1.8c0-.518-.22-.721-.778-.721H12.2c-.56 0-.779.203-.779.72v1.8c0 .518.22.721.778.721M18.08 15.5h2.72c.56 0 .779-.203.779-.72v-1.8c0-.518-.22-.721-.778-.721H18.08c-.559 0-.778.203-.778.72v1.8c0 .518.22.721.778.721M24.495 15.5h2.722c.558 0 .777-.203.777-.72v-1.8c0-.518-.22-.721-.777-.721h-2.722c-.558 0-.778.203-.778.72v1.8c0 .518.22.721.778.721M5.784 21.442h2.72c.56 0 .779-.203.779-.72V18.92c0-.517-.22-.72-.778-.72H5.784c-.559 0-.778.203-.778.72v1.8c0 .518.22.721.778.721M12.2 21.442h2.72c.559 0 .778-.203.778-.72V18.92c0-.517-.22-.72-.778-.72H12.2c-.56 0-.779.203-.779.72v1.8c0 .518.22.721.778.721M18.08 21.442h2.72c.56 0 .779-.203.779-.72V18.92c0-.517-.22-.72-.778-.72H18.08c-.559 0-.778.203-.778.72v1.8c0 .518.22.721.778.721M24.495 21.442h2.722c.558 0 .777-.203.777-.72V18.92c0-.517-.22-.72-.777-.72h-2.722c-.558 0-.778.203-.778.72v1.8c0 .518.22.721.778.721M5.784 26.844h2.72c.56 0 .779-.203.779-.72v-1.801c0-.518-.22-.72-.778-.72H5.784c-.559 0-.778.202-.778.72v1.8c0 .517.22.72.778.72M12.2 26.844h2.72c.559 0 .778-.203.778-.72v-1.801c0-.518-.22-.72-.778-.72H12.2c-.56 0-.779.202-.779.72v1.8c0 .517.22.72.778.72M18.08 26.844h2.72c.56 0 .779-.203.779-.72v-1.801c0-.518-.22-.72-.778-.72H18.08c-.559 0-.778.202-.778.72v1.8c0 .517.22.72.778.72"/>
        <path d="M28.608 4.696h-1.95v1.937c0 1.306-.819 2.116-2.137 2.116s-2.136-.81-2.136-2.116V4.696h-11.77v1.937c0 1.306-.818 2.116-2.136 2.116s-2.137-.81-2.137-2.116V4.696h-1.95C1.762 4.696.729 5.72.729 8.324v19.213c0 2.605 1.033 3.628 3.663 3.628h24.216c2.63 0 3.663-1.023 3.663-3.628V8.324c0-2.605-1.033-3.628-3.663-3.628zm1.831 20.832l-3.86 3.823H3.782c-.877 0-1.221-.34-1.221-1.209V10.407H30.44v15.121z"/>
    </g>
</svg>
