<svg xmlns="http://www.w3.org/2000/svg" xmlns:xlink="http://www.w3.org/1999/xlink" width="33" height="33" viewBox="0 0 33 33">
    <defs>
        <circle id="a" cx="16.5" cy="16.5" r="16.5"/>
    </defs>
    <g fill="none" fill-rule="evenodd">
        <g>
            <mask id="b" fill="#fff">
                <use xlink:href="#a"/>
            </mask>
            <use fill="#80D0DB" xlink:href="#a"/>
            <path fill="#80D0DB" d="M15.582 14.553h.367c.208 0 .413-.017.616-.051.203-.035.389-.098.557-.19.17-.092.305-.217.409-.374.103-.157.155-.362.155-.615 0-.184-.034-.349-.104-.495a1.073 1.073 0 0 0-.281-.367 1.282 1.282 0 0 0-.414-.23 1.502 1.502 0 0 0-.489-.081c-.337 0-.617.096-.84.287a1.479 1.479 0 0 0-.46.76l-1.299-.334c.069-.276.186-.527.35-.753.166-.226.365-.422.599-.587.234-.165.496-.293.788-.385.29-.092.597-.138.92-.138.352 0 .688.048 1.006.144.318.096.598.237.84.425.24.188.43.42.569.696.138.276.207.598.207.966 0 .437-.133.826-.397 1.167-.265.341-.62.566-1.064.673v.023c.498.1.903.324 1.213.673.31.349.466.776.466 1.282 0 .422-.082.79-.247 1.104a2.323 2.323 0 0 1-.656.782 2.904 2.904 0 0 1-.914.466 3.471 3.471 0 0 1-1.023.155 4.22 4.22 0 0 1-.978-.11 2.982 2.982 0 0 1-.845-.338 2.509 2.509 0 0 1-.679-.599 2.7 2.7 0 0 1-.454-.873l1.288-.403c.1.322.286.594.558.816.272.223.626.334 1.064.334a2 2 0 0 0 .534-.075c.18-.05.341-.128.483-.235.142-.108.257-.246.345-.415.088-.168.133-.375.133-.62 0-.261-.064-.482-.19-.662a1.374 1.374 0 0 0-.477-.425 2.248 2.248 0 0 0-.639-.225 3.486 3.486 0 0 0-.672-.069h-.345v-1.104z" mask="url(#b)"/>
            <path fill="#FFF" d="M6.802 23.354h5.647c.38 1.777 1.975 3.146 3.876 3.146 1.907 0 3.497-1.369 3.876-3.146h5.648c.451 0 .802-.37.802-.821v-1.59a3.113 3.113 0 0 0-1.657-2.757 1.485 1.485 0 0 1-.792-1.316v-2.915a7.961 7.961 0 0 0-2.18-5.5 7.79 7.79 0 0 0-5.375-2.448A7.813 7.813 0 0 0 10.865 8.2a7.805 7.805 0 0 0-2.416 5.691v2.978c0 .552-.303 1.057-.792 1.316A3.113 3.113 0 0 0 6 20.943v1.59c0 .45.35.82.802.82zm9.523 1.513c-.994 0-1.849-.649-2.18-1.513h4.361c-.331.864-1.186 1.513-2.18 1.513zm-8.693-3.924c0-.552.303-1.057.793-1.316a3.111 3.111 0 0 0 1.657-2.757v-2.978c0-1.72.677-3.323 1.916-4.514a6.192 6.192 0 0 1 4.592-1.739 6.183 6.183 0 0 1 4.25 1.94 6.322 6.322 0 0 1 1.734 4.376v2.915c0 1.158.633 2.215 1.656 2.757.49.26.793.764.793 1.316v.778H7.633v-.778z" mask="url(#b)"/>
        </g>
    </g>
</svg>
