<svg xmlns="http://www.w3.org/2000/svg" xmlns:xlink="http://www.w3.org/1999/xlink" width="33" height="33" viewBox="0 0 33 33">
    <defs>
        <circle id="a" cx="16.5" cy="16.5" r="16.5"/>
        <path id="c" d="M0 0h17.16v21.12H0z"/>
    </defs>
    <g fill="none" fill-rule="evenodd">
        <g>
            <mask id="b" fill="#fff">
                <use xlink:href="#a"/>
            </mask>
            <use fill="#80D0DB" xlink:href="#a"/>
            <g fill="#80D0DB" mask="url(#b)">
                <path d="M-1 1h37v37H-1z"/>
            </g>
        </g>
        <g transform="translate(8 5)">
            <mask id="d" fill="#fff">
                <use xlink:href="#c"/>
            </mask>
            <path fill="#FFF" d="M15.673 21.12H1.488a1.46 1.46 0 0 1-1.075-.482 1.604 1.604 0 0 1-.411-1.153c.227-4.701 2.57-6.869 4.323-8.44a6.526 6.526 0 0 1-1.9-4.631C2.425 2.878 5.186 0 8.58 0c3.395 0 6.156 2.878 6.156 6.414a6.53 6.53 0 0 1-1.9 4.63c1.753 1.573 4.095 3.74 4.322 8.441.02.425-.129.845-.41 1.153-.28.307-.67.482-1.075.482M1.69 19.37H15.47c-.248-3.879-2.138-5.573-3.809-7.07l-.178-.16a7.012 7.012 0 0 1-.89.336 6.083 6.083 0 0 1-4.024 0 7.093 7.093 0 0 1-.89-.336l-.177.158c-1.672 1.498-3.562 3.192-3.81 7.072m5.389-8.561a5.45 5.45 0 0 0 1.506.222 5.39 5.39 0 0 0 1.494-.222c1.733-.644 2.976-2.37 2.976-4.395 0-2.571-2.008-4.664-4.476-4.664S4.104 3.843 4.104 6.414c0 2.024 1.243 3.75 2.976 4.395" mask="url(#d)"/>
        </g>
    </g>
</svg>
